{"title":"Bitva za Sevastopol (2015) - 1080p x265 HEVC - RUS (ENG SUBS) [B","uid":14733280,"size":1972801313,"categoryP":"video","categoryS":"hd___movies","magnet":"?xt=urn:btih:f75b50754271fc3c62f6e526418c1f798969dbd6&amp;dn=Bitva+za+Sevastopol+%282015%29+-+1080p+x265+HEVC+-+RUS+%28ENG+SUBS%29+%5BB&amp;tr=udp%3A%2F%2Ftracker.leechers-paradise.org%3A6969&amp;tr=udp%3A%2F%2Fzer0day.ch%3A1337&amp;tr=udp%3A%2F%2Fopen.demonii.com%3A1337&amp;tr=udp%3A%2F%2Ftracker.coppersurfer.tk%3A6969&amp;tr=udp%3A%2F%2Fexodus.desync.com%3A6969","seeders":11,"leechers":2,"uploader":"BRSHNKV","files":2,"time":1464611554,"description":"The breakout of the war shatters the world of a young student, Lyudmila Pavlichenko, forcing her to enlist in the army in 1941. she turns out to be a natural-born sniper, her impressive skill and prowess makes her stand out among men and women alike. Seeing Pavlichenko as a tangible threat, the German High Command gives orders to eliminate the girl at whatever the cost.\r\n\r\n\r\nTechnical:\r\n\r\nFormat : MPEG-4\r\nFormat profile : Base Media / Version 2\r\nCodec ID : mp42\r\nFile size : 1.84 GiB\r\nDuration : 2h 2mn\r\nOverall bit rate mode : Variable\r\nOverall bit rate : 2 141 Kbps\r\nMovie name : Bitva za Sevastopol (2015) - 1080p x265 HEVC - RUS (ENG SUBS) [BRSHNKV]\r\nEncoded date : UTC 2016-05-25 09:23:00\r\nTagged date : UTC 2016-05-25 09:23:00\r\nWriting application : HandBrake 20160211184813-ffd8cb1-master 2016021301\r\n\r\nVideo\r\nID : 1\r\nFormat : HEVC\r\nFormat/Info : High Efficiency Video Coding\r\nFormat profile : Main   @Main\r\nCodec ID : hev1\r\nCodec ID/Info : High Efficiency Video Coding\r\nDuration : 2h 2mn\r\nBit rate : 1 801 Kbps\r\nWidth : 1 920 pixels\r\nHeight : 800 pixels\r\nDisplay aspect ratio : 2.40:1\r\nFrame rate mode : Constant\r\nFrame rate : 24.000 fps\r\nColor space : YUV\r\nChroma subsampling : 4:2:0\r\nBit depth : 10 bits\r\nBits/(Pixel*Frame) : 0.049\r\nStream size : 1.55 GiB (84%)\r\nWriting library : x265 1.9:[Mac OS X][clang 7.0.2][64 bit] 10bit\r\nEncoding settings : wpp / ctu=64 / min-cu-size=8 / max-tu-size=32 / tu-intra-depth=1 / tu-inter-depth=1 / me=1 / subme=2 / merange=57 / no-rect / no-amp / max-merge=2 / temporal-mvp / no-early-skip / rdpenalty=0 / no-tskip / no-tskip-fast / strong-intra-smoothing / no-lossless / no-cu-lossless / no-constrained-intra / no-fast-intra / open-gop / no-temporal-layers / interlace=0 / keyint=240 / min-keyint=24 / scenecut=40 / rc-lookahead=20 / lookahead-slices=5 / bframes=4 / bframe-bias=0 / b-adapt=2 / ref=3 / limit-refs=3 / no-limit-modes / weightp / no-weightb / aq-mode=1 / qg-size=32 / aq-strength=0.30 / cbqpoffs=0 / crqpoffs=0 / rd=3 / psy-rd=0.50 / rdoq-level=2 / psy-rdoq=10.00 / signhide / deblock=-2:-2 / sao / no-sao-non-deblock / b-pyramid / cutree / no-intra-refresh / rc=2 / pass / bitrate=1800 / qcomp=0.80 / qpmin=0 / qpmax=51 / qpstep=4 / cplxblur=20.0 / qblur=0.5 / ipratio=1.10 / pbratio=1.10\r\nEncoded date : UTC 2016-05-25 09:23:00\r\nTagged date : UTC 2016-05-25 09:23:00\r\nColor range : Limited\r\nColor primaries : BT.709\r\nTransfer characteristics : BT.709\r\nMatrix coefficients : BT.709\r\n\r\nAudio #1\r\nID : 2\r\nFormat : AAC\r\nFormat/Info : Advanced Audio Codec\r\nFormat profile : LC\r\nCodec ID : 40\r\nDuration : 2h 2mn\r\nBit rate mode : Variable\r\nBit rate : 165 Kbps\r\nChannel(s) : 2 channels\r\nChannel positions : Front: L R\r\nSampling rate : 48.0 KHz\r\nCompression mode : Lossy\r\nStream size : 145 MiB (8%)\r\nTitle : Stereo / Stereo\r\nLanguage : Russian\r\nEncoded date : UTC 2016-05-25 09:23:00\r\nTagged date : UTC 2016-05-25 09:23:00\r\n\r\nAudio #2\r\nID : 3\r\nFormat : AAC\r\nFormat/Info : Advanced Audio Codec\r\nFormat profile : LC\r\nCodec ID : 40\r\nDuration : 2h 2mn\r\nBit rate mode : Variable\r\nBit rate : 166 Kbps\r\nChannel(s) : 2 channels\r\nChannel positions : Front: L R\r\nSampling rate : 48.0 KHz\r\nCompression mode : Lossy\r\nStream size : 146 MiB (8%)\r\nTitle : Stereo / Stereo\r\nLanguage : Russian\r\nEncoded date : UTC 2016-05-25 09:23:00\r\nTagged date : UTC 2016-05-25 09:23:00\r\n\r\nMenu\r\nID : 4\r\nCodec ID : text\r\nDuration : 2h 2mn\r\nLanguage : English\r\nEncoded date : UTC 2016-05-25 09:23:00\r\nTagged date : UTC 2016-05-25 09:23:00\r\n00:00:00.000 : Chapter 1\r\n00:10:18.792 : Chapter 2\r\n00:18:17.333 : Chapter 3\r\n00:26:42.333 : Chapter 4\r\n00:36:11.583 : Chapter 5\r\n00:46:15.875 : Chapter 6\r\n00:53:36.000 : Chapter 7\r\n01:02:41.500 : Chapter 8\r\n01:13:53.708 : Chapter 9\r\n01:21:31.375 : Chapter 10\r\n01:30:32.500 : Chapter 11\r\n01:43:26.292 : Chapter 12\r\n01:59:19.958 : Chapter 13\r\n02:02:49.750 : Chapter 14","torrent":{"xt":"urn:btih:f75b50754271fc3c62f6e526418c1f798969dbd6","amp;dn":"Bitva+za+Sevastopol+%282015%29+-+1080p+x265+HEVC+-+RUS+%28ENG+SUBS%29+%5BB","amp;tr":["udp%3A%2F%2Ftracker.leechers-paradise.org%3A6969","udp%3A%2F%2Fzer0day.ch%3A1337","udp%3A%2F%2Fopen.demonii.com%3A1337","udp%3A%2F%2Ftracker.coppersurfer.tk%3A6969","udp%3A%2F%2Fexodus.desync.com%3A6969"],"infoHash":"f75b50754271fc3c62f6e526418c1f798969dbd6","infoHashBuffer":{"type":"Buffer","data":[247,91,80,117,66,113,252,60,98,246,229,38,65,140,31,121,137,105,219,214]},"announce":[],"urlList":[]}}